inDegrees=yes
name=ik_S46_A02_T02
DataType=double
version=3
OpenSimVersion=4.3-2021-08-27-4bc7ad9
endheader
time	pelvis_tilt	pelvis_list	pelvis_rotation	pelvis_tx	pelvis_ty	pelvis_tz	hip_flexion_r	hip_adduction_r	hip_rotation_r	knee_angle_r	knee_angle_r_beta	ankle_angle_r	subtalar_angle_r	mtp_angle_r	hip_flexion_l	hip_adduction_l	hip_rotation_l	knee_angle_l	knee_angle_l_beta	ankle_angle_l	subtalar_angle_l	mtp_angle_l	lumbar_extension	lumbar_bending	lumbar_rotation	arm_flex_r	arm_add_r	arm_rot_r	elbow_flex_r	pro_sup_r	wrist_flex_r	wrist_dev_r	arm_flex_l	arm_add_l	arm_rot_l	elbow_flex_l	pro_sup_l	wrist_flex_l	wrist_dev_l
32.85999999999954	-2.870323546089771	-1.216806170348302	93.71618635922084	0	0.9399999999999999	0	19.70964996210672	-6.249105122654984	-11.02884998463128	1.33720186135939	0.02333857524451809	0	0	0	-9.202922177117566	1.038066538059752	-15.23114356728066	16.81162759645224	0.2934182541772321	0	0	0	0	0	0	42.74134184621904	-42.74134184621904	4.973261403635033	84.63573879937806	85.02673886965624	0	0	42.74134184621904	-42.74134184621904	4.973261403635033	84.63573879937806	85.02673886965157	0	0
32.87999999999954	-4.02523886261921	-1.373117013696019	93.09103579090711	0	0.9399999999999999	0	20.26065940102458	-7.167858079667522	-11.63543999044685	0.1859727459549617	0.003245836735889047	0	0	0	-8.914252551302546	4.75182134956719	-11.23825976436958	15.02051316706133	0.2621574101043812	0	0	0	0	0	0	42.74476053271989	-42.74476053271989	4.973335688919943	84.63675080677056	85.0266645843742	0	0	42.74476053271989	-42.74476053271989	4.973335688919943	84.63675080677056	85.02666458436956	0	0
32.89999999999954	-4.036876097860342	-1.376414152612362	93.11651209770635	0	0.9399999999999999	0	20.19695563127277	-7.177005685927958	-11.933378188089	-1.554933893711787	-0.02713871609612624	0	0	0	-8.7456812172619	5.183388111571881	-8.670164114351197	13.02276123828873	0.2272900613092322	0	0	0	0	0	0	42.74126032961063	-42.74126032961063	4.973270028707004	84.63585630728845	85.02673024458473	0	0	42.74126032961063	-42.74126032961063	4.973270028707004	84.63585630728845	85.02673024458009	0	0
32.91999999999955	-5.040245698068683	-0.9474171138465489	92.23209316614461	0	0.9399999999999999	0	20.31004083532778	-7.892562462879593	-12.64218568711425	-2.024198451151974	-0.03532892768637155	0	0	0	-7.596899678074148	6.02617678285252	-10.97869976980027	13.20473235487446	0.2304660564371835	0	0	0	0	0	0	42.74812188254175	-42.74812188254175	4.973410293814985	84.6377671691082	85.02658997948204	0	0	42.74812188254175	-42.74812188254175	4.973410293814985	84.6377671691082	85.02658997947746	0	0
32.93999999999955	-5.112484364112582	-0.6208377591306354	91.78842360030299	0	0.9399999999999999	0	20.76317300970178	-8.429680362238095	-14.15477888087776	-1.356839653871308	-0.02368131938167455	0	0	0	-7.197241559408909	5.721662532894044	-13.66243350250499	11.45774750718033	0.1999754188624694	0	0	0	0	0	0	42.7568027624379	-42.7568027624379	4.973587586846326	84.64018247008143	85.02641268645739	0	0	42.7568027624379	-42.7568027624379	4.973587586846326	84.64018247008143	85.02641268645284	0	0
32.95999999999955	-4.936893933627132	-0.1658343133735343	91.15106006482004	0	0.9399999999999999	0	20.8855426949296	-8.5151880719249	-13.71877849582417	-0.7697585699783466	-0.01343482149156532	0	0	0	-8.075039993288405	5.541044604903933	-16.18561098615558	10.74148963508372	0.1874743607010552	0	0	0	0	0	0	42.75778483471827	-42.75778483471827	4.973610856416998	84.64049947851134	85.02638941688762	0	0	42.75778483471827	-42.75778483471827	4.973610856416998	84.64049947851134	85.02638941688309	0	0
32.97999999999956	-4.772638279970832	0.01823190944016151	90.85331368230666	0	0.9399999999999999	0	21.08895477918022	-8.728854470019382	-13.36607510119963	-0.4548651448981386	-0.007938894431033605	0	0	0	-8.058568244360693	6.600639181084831	-12.77974554593687	6.059523480079768	0.105758635829297	0	0	0	0	0	0	42.75927555075125	-42.75927555075125	4.973645764459129	84.6409750410742	85.02635450884684	0	0	42.75927555075125	-42.75927555075125	4.973645764459129	84.6409750410742	85.02635450884235	0	0
32.99999999999956	-4.363707559773162	0.3271730552362259	90.37071222042552	0	0.9399999999999999	0	20.90166722059789	-9.033907120308173	-13.45074121193419	4.965641877956265	0.08666680024525125	0	0	0	-8.299650340202968	6.249552396768667	-13.3239185372975	6.102591098229873	0.106510307567008	0	0	0	0	0	0	42.80136939823032	-42.80136939823032	4.974511232870609	84.65276550359097	85.02548904046812	0	0	42.80136939823032	-42.80136939823032	4.974511232870609	84.65276550359097	85.0254890404638	0	0
33.01999999999956	-3.817322057057278	0.715273792145719	89.9720403278522	0	0.9399999999999999	0	20.5854736230789	-9.293176154818633	-13.30816848533255	8.472247119818714	0.1478686072834431	0	0	0	-7.095831999797993	6.06752422755198	-13.16025008247193	7.409055872470244	0.1293124194388268	0	0	0	0	0	0	42.82353851867726	-42.82353851867726	4.974948402384364	84.65872114797273	85.02505187097073	0	0	42.82353851867726	-42.82353851867726	4.974948402384364	84.65872114797273	85.02505187096652	0	0
33.03999999999957	-3.194946472228814	0.9277154138296292	89.75361930056194	0	0.9399999999999999	0	20.34002143946229	-9.547886349725999	-12.67430895726162	12.28151175706046	0.2143528172830989	0	0	0	-7.278173627036972	5.478118221774514	-13.44561825433449	7.404707483898783	0.1292365257410988	0	0	0	0	0	0	42.82436485810142	-42.82436485810142	4.974967482005366	84.65898107494374	85.02503279135043	0	0	42.82436485810142	-42.82436485810142	4.974967482005366	84.65898107494374	85.02503279134622	0	0
33.05999999999957	-2.627559021143561	1.021572862809341	89.62186464966287	0	0.9399999999999999	0	19.94908856854307	-9.64205650931785	-12.07022926037605	14.05610008169727	0.2453252264154613	0	0	0	-5.893267439800415	4.743624019570199	-12.78335901816826	6.727476411778546	0.1174166137357894	0	0	0	0	0	0	42.83698043628234	-42.83698043628234	4.975214756413747	84.66234974080355	85.02478551695135	0	0	42.83698043628234	-42.83698043628234	4.975214756413747	84.66234974080355	85.02478551694705	0	0
33.07999999999957	-2.1405255577847	1.049672952369795	89.57860437481342	0	0.9399999999999999	0	19.810400299401	-9.451868950875769	-11.9105543291729	20.22692732804198	0.3530264794359517	0	0	0	-5.577076165648315	4.4292659096506	-13.23078179407297	5.737819155812792	0.1001438361529347	0	0	0	0	0	0	42.87084281874773	-42.87084281874773	4.975879714808126	84.67140859413121	85.02412055858193	0	0	42.87084281874773	-42.87084281874773	4.975879714808126	84.67140859413121	85.02412055857766	0	0
33.09999999999958	-1.585285503242886	0.8562405767537523	89.53547625594136	0	0.9399999999999999	0	18.2464478323065	-9.605174923324807	-11.99517484531823	22.97626403937581	0.40101145729468	0	0	0	-5.07850633896466	4.021923864701765	-14.24800000482432	4.201868007597335	0.07333643146678762	0	0	0	0	0	0	42.87171086667204	-42.87171086667204	4.975899485975047	84.67167794193399	85.02410078741583	0	0	42.87171086667204	-42.87171086667204	4.975899485975047	84.67167794193399	85.02410078741157	0	0
33.11999999999958	-1.572954015178709	0.8692333767756455	89.5265108616651	0	0.9399999999999999	0	16.89205944024164	-9.769870585624048	-12.39759016696243	23.8538223547478	0.4163277392761759	0	0	0	-4.962477454346374	4.233680027455772	-15.63637330005159	4.269941520912653	0.0745245384075401	0	0	0	0	0	0	42.87243574831643	-42.87243574831643	4.975916000556834	84.67190292442075	85.02408427283463	0	0	42.87243574831643	-42.87243574831643	4.975916000556834	84.67190292442075	85.02408427283038	0	0
33.13999999999958	-1.251026877076441	0.6223374658723755	89.35706384014415	0	0.9399999999999999	0	15.65359195868662	-9.494094279423214	-12.74915501922034	22.58571632653258	0.3941951138194322	0	0	0	-4.558894763626836	3.867948772794275	-16.44166200628374	2.933817199457227	0.0512047697821678	0	0	0	0	0	0	42.87299093114466	-42.87299093114466	4.975928582298713	84.67207432876333	85.02407169109318	0	0	42.87299093114466	-42.87299093114466	4.975928582298713	84.67207432876333	85.02407169108893	0	0
33.15999999999958	-0.9365967073478233	0.1325171125745825	88.73869568385327	0	0.9399999999999999	0	15.96731414979472	-9.504873090180578	-12.25874639668632	30.20513140674383	0.5271789940452264	0	0	0	-3.508864315574971	3.708272875218102	-16.95717072097846	1.667862775460244	0.02910969690323214	0	0	0	0	0	0	42.90606267879595	-42.90606267879595	4.976554752720892	84.68060475355171	85.02344552069424	0	0	42.90606267879595	-42.90606267879595	4.976554752720892	84.68060475355171	85.02344552069009	0	0
33.17999999999959	-0.8828613946980877	-0.06839678047080192	88.31311723347986	0	0.9399999999999999	0	12.39173851731094	-9.596418464625552	-12.86297755369221	28.626135626355	0.499620318802344	0	0	0	-2.49115404579825	3.768560416717279	-16.7682256886494	3.282726268993936	0.05729438183565322	0	0	0	0	0	0	42.91552232459082	-42.91552232459082	4.976736214993664	84.68307684606513	85.02326405842824	0	0	42.91552232459082	-42.91552232459082	4.976736214993664	84.68307684606513	85.02326405842409	0	0
33.19999999999959	-0.8462051171135958	-0.2510251654147715	87.83212697727846	0	0.9399999999999999	0	10.20203329951663	-9.699387555211198	-13.06579593382474	31.52194157934755	0.5501616671809161	0	0	0	-1.3773937477699	3.762508466948823	-16.25855043425645	4.356243128079561	0.07603078560236538	0	0	0	0	0	0	42.91621246125364	-42.91621246125364	4.976751704072713	84.68328785764659	85.02324856934978	0	0	42.91621246125364	-42.91621246125364	4.976751704072713	84.68328785764659	85.02324856934564	0	0
33.21999999999959	-0.8262692102745716	-0.4204525447157057	87.24333136240701	0	0.9399999999999999	0	8.032646061288471	-9.51336235694049	-13.00321811958056	32.22130384154941	0.5623678413205344	0	0	0	0.3131491751019958	3.610522787477146	-16.01736299951176	5.109741056831101	0.08918180536603741	0	0	0	0	0	0	42.92694585134721	-42.92694585134721	4.976955953942148	84.68607038874707	85.02304431948795	0	0	42.92694585134721	-42.92694585134721	4.976955953942148	84.68607038874707	85.02304431948384	0	0
33.2399999999996	-0.8064716204417768	-0.455130555607451	86.95327164700092	0	0.9399999999999999	0	5.422697969648569	-9.282504670575321	-13.44232349960984	33.49928718332148	0.5846728584200972	0	0	0	0.5232001032779043	3.523407637862698	-15.67509769267278	4.603168028385695	0.08034043811786618	0	0	0	0	0	0	42.93147904203782	-42.93147904203782	4.977043151132703	84.68725829150493	85.02295712230061	0	0	42.93147904203782	-42.93147904203782	4.977043151132703	84.68725829150493	85.02295712229657	0	0
